<?xml version="1.0" encoding="UTF-8"?><svg id="Layer_2" xmlns="http://www.w3.org/2000/svg" viewBox="0 0 177.14 82.56"><defs><style>.cls-1{fill:#ff3924;}.cls-2{fill:#ff3924;}</style></defs><g id="Layer_1-2"><path class="cls-2" d="M.24,26.77c0-.77.1-1.59.24-2.5l2.64-14.8-3.12-1.35.43-2.35h14.32s-.38,2.31-.38,2.31l-3.08,1.01-2.6,14.75c-.14.87-.24,1.59-.24,2.21,0,3.32,1.78,4.9,5.14,4.9,4.18,0,6.58-2.98,7.5-8.07l2.31-13.02-4.71-1.73.43-2.35h12.64s-.38,2.31-.38,2.31l-3.8,1.59-2.35,13.36c-1.49,8.31-8.22,11.15-14.42,11.15-7.64,0-10.57-2.79-10.57-7.4Z"/><path class="cls-2" d="M39.5,33.3l1.97-11.68c.14-.91.24-1.92.24-2.74,0-.62-.05-1.15-.19-1.59l-.91-.24c-1.11.58-2.59,1.68-4.28,3.32l-2.26,13.41h-6.63s3.03-18.21,3.03-18.21h-3.8s0-2.45,0-2.45l8.65-1.83,2.5.48-.82,4.81c3.27-3.51,5.91-5.29,8.46-5.29,1.97,0,3.22,2.5,3.22,6.25,0,1.2-.14,2.55-.38,3.94l-1.39,8.07.48.34,3.08-2.6,1.39,1.83-5.86,5.05-6.49-.87Z"/><path class="cls-2" d="M62.95,33.78l-2.31-8.99.38-1.3c2.02-1.73,3.89-5,4.28-7.35l-.58-.24c-1.3.53-3.08,1.78-4.95,3.36l-2.55,14.51h-6.73s5.14-29.17,5.14-29.17h-3.8s0-2.45,0-2.45l8.7-2.16,2.45.82-2.5,14.32c2.16-1.92,4.23-3.32,5.67-3.84l6.1.48c.14.67.29,1.63.24,2.31,0,3.8-2.02,7.5-5.19,9.76l1.78,5.38.58.14,3.22-1.97,1.06,1.68-6.25,5.09-4.76-.38Z"/><path class="cls-2" d="M85.69,33.3l1.97-11.68c.14-.91.24-1.92.24-2.74,0-.62-.05-1.15-.19-1.59l-.91-.24c-1.11.58-2.59,1.68-4.28,3.32l-2.26,13.41h-6.63s3.03-18.21,3.03-18.21h-3.8s0-2.45,0-2.45l8.65-1.83,2.5.48-.82,4.81c3.27-3.51,5.91-5.29,8.46-5.29,1.97,0,3.22,2.5,3.22,6.25,0,1.2-.14,2.55-.38,3.94l-1.39,8.07.48.34,3.08-2.6,1.39,1.83-5.86,5.05-6.49-.87Z"/><path class="cls-2" d="M96.74,26.48c.05-8.27,4.47-15.19,12.98-15.19,4.61,0,7.74,2.35,7.74,7.79-.05,8.41-4.9,14.95-13.7,15.09-4.66,0-7.02-3.36-7.02-7.69ZM110.29,18.31c0-1.35-.14-2.59-.38-3.65-.48-.19-1.35-.38-2.31-.34-2.35,2.5-3.7,7.98-3.7,12.45,0,1.49.19,2.79.43,3.84.34.19,1.3.43,2.07.48,2.5-2.55,3.89-8.12,3.89-12.78Z"/><path class="cls-2" d="M119.13,15.57h-3.36s0-2.5,0-2.5l8.41-1.78,2.55.24c-.14,1.63-.24,3.27-.24,4.9,0,3.94.48,7.88,1.35,11.92h.53s4.9-11.15,4.9-11.15c-.14-1.87-.24-3.6-.19-5.14l7.35-.77c-.24,1.54-.34,3.17-.34,4.81,0,4.04.62,8.17,1.54,12.25h.53s4.85-12.06,4.85-12.06v-4.57s6.49,0,6.49,0v2.31s-10,19.75-10,19.75h-7.06c-.91-2.64-1.68-5.91-2.26-9.32l-4.47,9.32h-7.3c-1.39-3.8-3.08-12.45-3.27-18.21Z"/><path class="cls-2" d="M164.79,33.3l1.97-11.68c.14-.91.24-1.92.24-2.74,0-.62-.05-1.15-.19-1.59l-.91-.24c-1.11.58-2.6,1.68-4.28,3.32l-2.26,13.41h-6.63s3.03-18.21,3.03-18.21h-3.8s0-2.45,0-2.45l8.65-1.83,2.5.48-.82,4.81c3.27-3.51,5.91-5.29,8.46-5.29,1.97,0,3.22,2.5,3.22,6.25,0,1.2-.14,2.55-.38,3.94l-1.39,8.07.48.34,3.08-2.6,1.39,1.83-5.86,5.05-6.49-.87Z"/><path class="cls-1" d="M49.62,53.34h-.24s-2.64,14.99-2.64,14.99l4.71,1.63-.38,2.35h-12.64s.38-2.31.38-2.31l3.75-1.49,3.56-20.28-3.22-1.59.43-2.35h9.8s10.72,17.4,10.72,17.4h.29s2.35-13.31,2.35-13.31l-4.23-1.73.43-2.35h11.97s-.38,2.31-.38,2.31l-3.56,1.35-4.37,24.75h-4.66s-12.06-19.37-12.06-19.37Z"/><path class="cls-1" d="M71.77,71.84l2.98-17.73h-3.8s0-2.45,0-2.45l8.65-1.83,2.5.48-2.93,17.78.48.34,3.08-2.6,1.39,1.83-5.86,5.05-6.49-.87ZM76.68,45.41c.87-1.54,2.21-4.71,2.4-5.67l5.48,1.01c-.58,1.78-1.78,4.76-2.88,6.15l-5-1.49Z"/><path class="cls-1" d="M80.81,81.12l1.44-5.57c2.35.96,5.14,1.68,7.98,1.68.82,0,1.63-.05,2.45-.19.62-.58,1.11-2.88,2.07-9.03.05-.58.14-1.15.24-1.73l-6.34,6.06h-4.47c-.53-1.68-.77-3.6-.77-5.67,0-4.81,1.3-10,3.27-12.54,1.78-2.31,4.28-4.28,8.22-4.28,1.59,0,3.41.38,5.53,1.06l1.54-1.06h2.11s-3.65,23.07-3.65,23.07c-.86,4.95-5.96,9.66-12.06,9.66-2.4,0-5.72-.53-7.54-1.44ZM95.42,63.24c.34-2.31.77-4.9,1.15-7.93-1.73-1.06-3.36-1.68-4.76-1.54-1.15,1.97-1.87,6.01-1.87,9.66,0,1.06.05,2.07.19,3.03l.72.24,4.57-3.46Z"/><path class="cls-1" d="M115.55,71.84l1.97-11.68c.14-.91.24-1.92.24-2.74,0-.62-.05-1.15-.14-1.59l-.91-.24c-1.15.58-2.6,1.63-4.28,3.32l-2.35,13.41h-6.73s5.14-29.17,5.14-29.17h-3.8s0-2.45,0-2.45l8.7-2.16,2.45.82-2.74,15.71c3.32-3.46,5.91-5.24,8.46-5.24,1.92,0,3.22,2.5,3.22,6.25,0,1.2-.14,2.55-.43,3.94l-1.39,8.07.48.34,3.08-2.6,1.39,1.83-5.81,5.05-6.54-.87Z"/><path class="cls-1" d="M127.9,71.6l2.88-17.88h-4.37s.43-2.35.43-2.35l4.85-.96,2.45-6.1h4.76s-1.01,5.96-1.01,5.96h5.96s-.62,3.46-.62,3.46h-5.96s-2.16,13.07-2.16,13.07l.43.34c2.07-.72,3.99-1.92,5.72-2.98l1.25,1.68c-1.25,1.39-6.06,5.82-9.42,6.87l-5.19-1.11Z"/></g></svg>